<svg xmlns="http://www.w3.org/2000/svg" xmlns:xlink="http://www.w3.org/1999/xlink" viewBox="0 0 223.96 88.29"><defs><style>.a{fill:none;}.b{clip-path:url(#a);}.c{fill:url(#b);}.d{clip-path:url(#c);}.e{fill:url(#d);}.f{clip-path:url(#e);}.g{fill:url(#f);}.h{clip-path:url(#g);}.i{fill:url(#h);}.j{clip-path:url(#i);}.k{fill:url(#j);}.l{clip-path:url(#k);}.m{fill:url(#l);}.n{clip-path:url(#m);}.o{fill:url(#n);}</style><clipPath id="a" transform="translate(0.17 0.27)"><path class="a" d="M13.58.85A3.9,3.9,0,0,0,9.7,4.73V27.87H3.87A3.89,3.89,0,0,0,0,31.74v5.31a3.88,3.88,0,0,0,3.87,3.87H9.7V70.66c0,11.41,5.2,16.85,17,16.85a37.62,37.62,0,0,0,9-1.11,2.65,2.65,0,0,0,2-2.59c-.09-2.34-.34-5.74-.34-6.83s-.82-2.31-2.89-2.06a18.15,18.15,0,0,1-2.94.18c-4.82,0-6.34-1.9-6.34-6V40.92H44.78v41.7a3.9,3.9,0,0,0,3.88,3.88h7.71a3.89,3.89,0,0,0,3.87-3.88V31.74a3.89,3.89,0,0,0-3.87-3.87H25.16V4.73A3.89,3.89,0,0,0,21.28.85ZM105.71,17.7l0,10.17H88.39V19.22c0-4,3.68-5.95,8.49-5.95,1.2,0,1.56.12,2.94.17A2.89,2.89,0,0,0,103,10.86c0-1.08.16-2.79.2-5.38a4.09,4.09,0,0,0-3.46-4A51.28,51.28,0,0,0,89.9.85c-11.77,0-17,5.46-17,16.85l-.05,10.17H67.05a3.89,3.89,0,0,0-3.87,3.87v5.31a3.88,3.88,0,0,0,3.87,3.87h5.83v41.7a3.89,3.89,0,0,0,3.88,3.88h7.71a3.89,3.89,0,0,0,3.87-3.88l0-41.7h17.28v41.7a3.88,3.88,0,0,0,3.87,3.88h7.7a3.89,3.89,0,0,0,3.88-3.88V40.92h10.5a3.88,3.88,0,0,0,3.88-3.87V31.74a3.89,3.89,0,0,0-3.88-3.87H121.17V19.22c0-4,3.67-5.95,8.49-5.95,1.21,0,1.57.12,2.94.17a2.9,2.9,0,0,0,3.23-2.58c0-1.08.16-2.79.2-5.38a4.09,4.09,0,0,0-3.48-4,51.07,51.07,0,0,0-9.86-.67c-11.78,0-17,5.46-17,16.85M43.48,9A9,9,0,1,0,61.42,9c0-5.06-3.49-9-8.91-9a8.66,8.66,0,0,0-9,9"/></clipPath><linearGradient id="b" x1="-844.01" y1="583.48" x2="-843.01" y2="583.48" gradientTransform="matrix(0, 248.48, 248.48, 0, -144912.95, 209693)" gradientUnits="userSpaceOnUse"><stop offset="0" stop-color="#dfa635"/><stop offset="0.2" stop-color="#fae668"/><stop offset="0.56" stop-color="#e8b13a"/><stop offset="0.8" stop-color="#fae767"/><stop offset="1" stop-color="#e0a936"/></linearGradient><clipPath id="c" transform="translate(0.17 0.27)"><path class="a" d="M148.68.15l-5,33.08a1.1,1.1,0,0,0,2.18.33l4.74-31.2h29.08v9.79h-20.4L155.6,35.21a1.12,1.12,0,0,0,.92,1.27h.17a1.11,1.11,0,0,0,1.09-.93l3.36-21.2h20.73V.15Z"/></clipPath><linearGradient id="d" x1="-842.82" y1="582.86" x2="-841.82" y2="582.86" gradientTransform="matrix(0, 180.89, 180.89, 0, -105270.36, 152379.8)" xlink:href="#b"/><clipPath id="e" transform="translate(0.17 0.27)"><path class="a" d="M155.71,35a1.11,1.11,0,0,0,2,.9,6.68,6.68,0,0,1,6.11-4c3,0,4.87,1.4,6,4.4a1.1,1.1,0,0,0,1,.71,1.12,1.12,0,0,0,1-1.5c-1.47-3.86-4.19-5.82-8.08-5.82A8.94,8.94,0,0,0,155.71,35"/></clipPath><linearGradient id="f" x1="-842.82" y1="582.86" x2="-841.82" y2="582.86" gradientTransform="matrix(0, 180.89, 180.89, 0, -105268.8, 152394.04)" xlink:href="#b"/><clipPath id="g" transform="translate(0.17 0.27)"><path class="a" d="M162.52,20.81a1.1,1.1,0,1,0,.75,2.07c11.51-4.19,18.18,5.48,18.46,5.89a1.09,1.09,0,0,0,.92.49,1.07,1.07,0,0,0,.61-.19,1.11,1.11,0,0,0,.31-1.53c-.07-.09-5.42-7.91-14.7-7.91a18.49,18.49,0,0,0-6.35,1.18"/></clipPath><linearGradient id="h" x1="-842.82" y1="582.87" x2="-841.82" y2="582.87" gradientTransform="matrix(0, 180.89, 180.89, 0, -105260.93, 152375.28)" xlink:href="#b"/><clipPath id="i" transform="translate(0.17 0.27)"><path class="a" d="M169.58,41.86a6.89,6.89,0,0,1-5.74,3.42,7,7,0,0,1-5.57-2.9,2,2,0,0,0-1.62-.82H143l-1.64-.07.29,1.39c2.12,10.19,11.6,17.6,22.53,17.6a23.49,23.49,0,0,0,19-9.29,1.11,1.11,0,0,0-1.78-1.31,21.26,21.26,0,0,1-17.2,8.39c-9.4,0-17.61-6-20-14.5h12.41a9.25,9.25,0,0,0,7.29,3.72A9.11,9.11,0,0,0,171.46,43a1.09,1.09,0,0,0-.36-1.51,1.09,1.09,0,0,0-1.52.36"/></clipPath><linearGradient id="j" x1="-842.82" y1="582.86" x2="-841.82" y2="582.86" gradientTransform="matrix(0, 180.89, 180.89, 0, -105270.59, 152412.62)" xlink:href="#b"/><clipPath id="k" transform="translate(0.17 0.27)"><path class="a" d="M181.34,49.93a1.11,1.11,0,0,0,1.85,1.21A13.06,13.06,0,1,1,181,58.33a1.1,1.1,0,0,0-2.2,0,15.25,15.25,0,1,0,2.51-8.4"/></clipPath><linearGradient id="l" x1="-842.82" y1="582.86" x2="-841.82" y2="582.86" gradientTransform="matrix(0, 180.89, 180.89, 0, -105238.84, 152388.44)" xlink:href="#b"/><clipPath id="m" transform="translate(0.17 0.27)"><path class="a" d="M169.61,41.82a1.1,1.1,0,1,0,1.83,1.23,27.33,27.33,0,1,1-3.53,23.11,26.94,26.94,0,0,1-.65-2.65,1.11,1.11,0,0,0-2.17.42c.19,1,.42,1.92.7,2.86a29.54,29.54,0,1,0,3.82-25"/></clipPath><linearGradient id="n" x1="-842.82" y1="582.86" x2="-841.82" y2="582.86" gradientTransform="matrix(0, 180.89, 180.89, 0, -105238.75, 152388.16)" xlink:href="#b"/></defs><g class="b"><rect class="c" x="24.14" y="-24.36" width="87.78" height="136.23" transform="translate(24.31 111.97) rotate(-89.89)"/></g><g class="d"><rect class="e" x="144.5" y="-0.88" width="36.44" height="38.4" transform="translate(144.13 181.25) rotate(-89.85)"/></g><g class="f"><rect class="g" x="160.12" y="24.99" width="7.36" height="16.69" transform="translate(130.19 197.32) rotate(-89.85)"/></g><g class="h"><rect class="i" x="167.46" y="12.83" width="10.63" height="22.29" transform="translate(148.51 196.95) rotate(-89.85)"/></g><g class="j"><rect class="k" x="152.81" y="29.8" width="19.25" height="42.21" transform="translate(111.27 213.47) rotate(-89.85)"/></g><g class="l"><rect class="m" x="178.78" y="43.02" width="30.62" height="30.62" transform="translate(135.41 252.54) rotate(-89.85)"/></g><g class="n"><rect class="o" x="164.69" y="28.93" width="59.22" height="58.81" transform="translate(135.62 252.74) rotate(-89.85)"/></g></svg>